<?xml version="1.0" encoding="UTF-8" standalone="no"?>
<svg
   xmlns:dc="http://purl.org/dc/elements/1.1/"
   xmlns:cc="http://creativecommons.org/ns#"
   xmlns:rdf="http://www.w3.org/1999/02/22-rdf-syntax-ns#"
   xmlns:svg="http://www.w3.org/2000/svg"
   xmlns="http://www.w3.org/2000/svg"
   xmlns:sodipodi="http://sodipodi.sourceforge.net/DTD/sodipodi-0.dtd"
   xmlns:inkscape="http://www.inkscape.org/namespaces/inkscape"
   sodipodi:docname="Whale-Drawings-Islands.svg"
   inkscape:version="1.0 (4035a4f, 2020-05-01)"
   id="svg8"
   version="1.1"
   viewBox="0 0 210 297"
   height="297mm"
   width="210mm">
  <defs
     id="defs2" />
  <sodipodi:namedview
     inkscape:window-maximized="0"
     inkscape:window-y="23"
     inkscape:window-x="311"
     inkscape:window-height="1395"
     inkscape:window-width="2182"
     inkscape:snap-global="false"
     showgrid="false"
     inkscape:document-rotation="0"
     inkscape:current-layer="layer7"
     inkscape:document-units="mm"
     inkscape:cy="526.54126"
     inkscape:cx="408.61056"
     inkscape:zoom="1.575579"
     inkscape:pageshadow="2"
     inkscape:pageopacity="0.0"
     borderopacity="1.0"
     bordercolor="#666666"
     pagecolor="#ffffff"
     id="base" />
  <metadata
     id="metadata5">
    <rdf:RDF>
      <cc:Work
         rdf:about="">
        <dc:format>image/svg+xml</dc:format>
        <dc:type
           rdf:resource="http://purl.org/dc/dcmitype/StillImage" />
        <dc:title></dc:title>
      </cc:Work>
    </rdf:RDF>
  </metadata>
  <g
     style="display:inline"
     inkscape:label="Islands"
     id="layer4"
     inkscape:groupmode="layer">
    <path
       sodipodi:nodetypes="csssssssssssssccsssssc"
       id="path415"
       d="m 144.78685,150.30607 c -0.32513,-0.34583 -0.68623,-0.65554 -0.93669,-0.65554 -0.83395,0 -1.66789,1.90676 -2.50184,1.90676 -0.83394,0 -1.66788,-1.90676 -2.50183,-1.90676 -0.83394,0 -1.66788,1.90676 -2.50183,1.90676 -0.83394,0 -1.66788,-1.90676 -2.50183,-1.90676 -0.83394,0 -1.66788,1.90676 -2.50183,1.90676 -0.83394,0 -1.66788,-1.90676 -2.50183,-1.90676 -0.83394,0 -1.66788,1.90676 -2.50183,1.90676 -0.83394,0 -1.66788,-1.90676 -2.50183,-1.90676 -0.83394,0 -1.66789,1.90676 -2.50183,1.90676 -0.83394,0 -1.66789,-1.90676 -2.50183,-1.90676 -0.83394,0 -1.66789,1.90676 -2.50183,1.90676 -0.83394,0 -1.66789,-1.90676 -2.50183,-1.90676 -0.52467,0 -1.04935,0.63373 -1.57402,1.10038 l -5.49414,-27.03018 c 0,0 9.52989,-2.64487 16.66682,-4.61802 7.13693,-1.97315 18.13619,-4.4081 25.14717,-3.9463 7.01098,0.4618 11.33512,2.26703 11.67098,9.31999 0.33585,7.05296 -0.37783,17.12862 -3.06468,20.82303 -2.27185,3.1238 -6.42324,4.53405 -9.73981,4.78594 -2.43372,0.18484 -2.65366,0.2207 -2.65366,0.2207 z"
       style="font-variation-settings:normal;display:inline;opacity:1;vector-effect:none;fill:none;fill-opacity:1;stroke:#000000;stroke-width:0.264583px;stroke-linecap:butt;stroke-linejoin:miter;stroke-miterlimit:4;stroke-dasharray:none;stroke-dashoffset:0;stroke-opacity:1;stop-color:#000000;stop-opacity:1" />
    <path
       style="font-variation-settings:normal;display:inline;opacity:1;vector-effect:none;fill:none;fill-opacity:1;stroke:#000000;stroke-width:0.264583px;stroke-linecap:butt;stroke-linejoin:miter;stroke-miterlimit:4;stroke-dasharray:none;stroke-dashoffset:0;stroke-opacity:1;stop-color:#000000;stop-opacity:1"
       d="m 105.71048,124.0146 6.00342,28.96753 0.54027,-0.64371 c 0.52467,-0.46665 1.04935,-1.10038 1.57402,-1.10038 0.83394,0 1.66789,1.90676 2.50183,1.90676 0.83394,0 1.66789,-1.90676 2.50183,-1.90676 0.83394,0 1.66789,1.90676 2.50183,1.90676 0.83394,0 1.66789,-1.90676 2.50183,-1.90676 0.83395,0 1.66789,1.90676 2.50183,1.90676 0.83395,0 1.66789,-1.90676 2.50183,-1.90676 0.83395,0 1.66789,1.90676 2.50183,1.90676 0.83395,0 1.66789,-1.90676 2.50183,-1.90676 0.83395,0 1.66789,1.90676 2.50183,1.90676 0.83395,0 1.66789,-1.90676 2.50183,-1.90676 0.83395,0 1.66789,1.90676 2.50183,1.90676 0.83395,0 1.66789,-1.90676 2.50184,-1.90676 0.25046,0 0.61156,0.30971 0.93669,0.65554 0.41096,0.43713 1.01636,1.12527 0.76447,1.25122 0,0 0.73982,0.38965 0.0867,1.57708 -0.65308,1.18743 -1.36554,2.4936 -1.6624,2.84983 -0.29685,0.35622 -0.83121,0.89341 -1.54365,0.89057 l -29.74508,-0.11877 c 0,0 5.28406,6.35276 1.95926,7.71831 -3.3248,1.36554 -8.60885,-0.77183 -10.62748,-2.84983 -2.01863,-2.078 -3.97788,-4.86848 -3.97788,-4.86848 h -0.712461 l 4.749711,-6.17462 h 1.06869 c 0,0 -3.08732,-15.19908 -3.62166,-17.39582 -0.53434,-2.19674 -2.493598,-2.31549 -3.324798,-2.078 -0.831199,0.23748 -6.887083,2.13737 -16.683364,3.44354 -9.796282,1.30617 -18.464507,1.06868 -21.195592,0.4156 -2.731084,-0.65309 -4.037255,0.0594 -5.046569,1.00931 -1.009314,0.94995 -1.128057,1.48429 -1.840513,2.4936 -0.712457,1.00932 0.05937,3.56229 1.543656,4.63097 1.484285,1.06869 8.668225,6.76834 13.892909,7.36206 5.224683,0.59371 6.590225,0.35622 6.590225,0.35622 l 27.132736,-0.23748 -4.630973,6.17462 h -6.827712 c 0,0 -9.915024,14.546 -14.842851,14.42726 -4.927826,-0.11875 -2.55297,-9.49943 -2.434227,-10.09314 0.118742,-0.59372 1.603027,-4.03726 1.603027,-4.03726 0,0 -7.480796,1.2468 -16.683364,-3.62165 -9.202568,-4.86846 -13.218088,-10.4544 -16.564622,-18.82074 -3.443541,-8.60885 2.136168,-12.15201 2.315485,-17.21771 0.237486,-6.70896 -9.165893,-7.5547 -7.955768,-13.12108 5.146876,-1.60087 14.951753,2.75039 16.267765,6.47149 6.508884,-4.99961 13.236009,-0.83305 19.88942,0.23748 0,0 0.178114,5.64029 -9.855653,5.8184 -10.033767,0.17811 -10.805596,0.94994 -9.440053,6.6496 1.365542,5.69965 11.981071,6.86665 24.935989,5.16531 11.121031,-1.4605 27.340227,-6.18689 27.340227,-6.18689 z"
       id="path454"
       sodipodi:nodetypes="csssssssssssssscscssscssccccssssssssccccsscssscccssscc" />
  </g>
  <g
     style="display:inline"
     inkscape:label="Bridge"
     id="layer7"
     inkscape:groupmode="layer" />
  <g
     style="display:inline"
     inkscape:label="Tunnel"
     id="layer2"
     inkscape:groupmode="layer" />
</svg>
